<?xml version="1.0" encoding="utf-8"?>
<!-- Generator: Adobe Illustrator 27.4.0, SVG Export Plug-In . SVG Version: 6.00 Build 0)  -->
<svg version="1.1" xmlns="http://www.w3.org/2000/svg" xmlns:xlink="http://www.w3.org/1999/xlink" x="0px" y="0px"
	 viewBox="0 0 579.96 834.13" style="enable-background:new 0 0 579.96 834.13;" xml:space="preserve">
<style type="text/css">
	.st0{fill:#FFFFFF;}
</style>
<g id="Bg">
</g>
<g id="Object">
	<g>
		<g>
			<g>
				<g>
					<g>
						<path class="st0" d="M518.04,230.01c-14.05,0-24.59,4.91-31.54,12.81c-7.02,7.98-10.46,18.95-10.46,31.17v-30
							c0-12.22-4.98-23.27-12.96-31.32c-8.05-7.98-19.1-12.95-31.32-12.95c-24.44,0-44.27,19.83-44.27,44.27v82.26l-0.07-109.89
							c0-12.22-4.96-23.3-12.97-31.31c-8.01-8.01-19.08-12.97-31.31-12.97c-24.45,0-44.28,19.83-44.28,44.28l0.08,109.89h-0.08
							V59.72c-0.8-23.71-20.27-42.74-44.2-42.74c-12.22,0-23.27,4.98-31.32,12.95c-7.98,8.05-12.95,19.1-12.95,31.33v355.29
							L98.13,309.34c-11.57-9.73-36.02-25.34-61.35-4.4c-27.31,22.59-22.74,47.29-8.03,65.07L127.62,486
							c19.39,31.91,29.49,107.95,54.81,142.71c33.23,45.59,29.57,46.25,40.91,84.08c3.22,10.69,4.83,20.57,6.51,41.94v0.22
							c0,11.49,5.93,22.39,16.18,29.64c19.54,13.97,59.49,32.56,133.26,32.56c69.67,0,111.68-15.22,134.36-27.73
							c13.98-7.61,21.45-21.67,19.84-35.94l-0.08-0.44c-1.9-16.39-2.56-33-1.75-49.47c2.04-44.56,9.44-78.01,22.83-126.67
							c4.83-17.42,8.49-37.84,8.49-59.79V273.99C562.98,249.55,546.15,230.01,518.04,230.01z M227.37,416.55V61.26
							c0-7.27,2.82-14.12,7.92-19.27c5.23-5.18,12.11-8.03,19.37-8.03c14.74,0,26.68,11.35,27.23,25.87v266.42
							c0,9.36,7.65,16.98,17.05,16.98c4.53,0,8.79-1.77,12-4.97c3.21-3.21,4.97-7.47,4.97-12.02l-0.07-109.88
							c0-15.05,12.25-27.3,27.3-27.3s27.3,12.25,27.3,27.31l0.07,109.89c0,9.35,7.61,16.97,16.97,16.97
							c9.37,0,16.98-7.62,16.98-16.98v-82.26c0-15.05,12.25-27.3,27.31-27.3c7.26,0,14.11,2.83,19.25,7.93
							c5.19,5.23,8.04,12.11,8.04,19.37v82.26c0,9.36,7.62,16.98,16.98,16.98c9.36,0,16.98-7.62,16.98-16.98V274
							c0-8.43,2.15-15.33,6.23-19.96c4.11-4.68,10.44-7.05,18.8-7.05c17.24,0,27.95,10.35,27.95,27.01v243.1
							c0,17.83-2.65,36.43-7.88,55.29c-13.88,50.43-21.31,84.44-23.42,130.36c-0.83,17.04-0.18,34.76,1.92,52.64
							c0.85,7.6-3.41,14.94-11.17,19.16c-21.19,11.69-60.28,25.62-126.16,25.62c-71.61,0-108.07-18.43-123.46-29.44
							c-5.81-4.11-9-9.79-9-16c0-0.44-0.02-0.88-0.06-1.33c-1.74-22.22-3.49-33.27-7.17-45.48c-1.69-5.66-3.05-10.48-4.25-14.74
							l-0.13-0.48c-7.37-26.26-10.48-34.75-39.06-73.99c-12.23-16.78-21.03-46.67-29.54-75.6l-0.05-0.16
							c-7.51-25.5-14.61-49.59-24.47-65.81c-0.47-0.76-0.99-1.48-1.56-2.15l-98.71-115.8c-3.75-4.53-8.15-11.56-7.86-19.26
							c0.29-7.29,4.87-14.66,13.63-21.91c2.81-2.32,8.04-6.64,15.91-6.64c7.05,0,14.8,3.49,23.03,10.37l112.13,107.09
							c4.92,4.69,12.14,5.99,18.39,3.32C223.32,429.49,227.37,423.36,227.37,416.55z"/>
						<path class="st0" d="M518.04,224.01c-15.04,0-27.5,5.14-36.04,14.84c-0.07,0.08-0.13,0.16-0.2,0.23
							c-1.12-11.52-6.15-22.26-14.49-30.67c-9.56-9.48-22.19-14.69-35.55-14.69c-15.46,0-29.32,7.01-38.55,18.03
							c-2.33-25.57-23.9-45.67-50.07-45.67c-15.02,0-28.53,6.62-37.74,17.11c-0.19,0.2-0.37,0.41-0.54,0.61V59.51
							c-0.92-27.21-22.97-48.53-50.2-48.53c-13.36,0-25.98,5.22-35.58,14.73c-9.48,9.56-14.69,22.18-14.69,35.55v341.27L102.27,305
							l-0.28-0.25c-23.77-20.01-48.29-21.58-69.03-4.43c-14.02,11.59-21.4,24.62-21.95,38.73c-0.45,11.83,4.08,23.86,13.17,34.85
							l98.55,115.62c8.19,13.69,14.82,36.23,21.84,60.08c9.07,30.79,18.44,62.64,33.01,82.64c27.33,37.5,29.06,43.68,35.52,66.67
							c1.25,4.48,2.68,9.56,4.5,15.62c3.13,10.41,4.66,20.25,6.25,40.43c0.01,13.54,6.83,26.12,18.69,34.51
							c21.48,15.36,62.64,33.68,136.75,33.68c70.77,0,113.71-15.49,137.23-28.46c15.83-8.62,24.83-25.06,22.93-41.88l-0.09-0.61
							c-1.9-16.41-2.48-32.67-1.71-48.35c2.01-43.79,9.2-76.57,22.62-125.35c5.78-20.83,8.71-41.49,8.71-61.39V274
							C568.98,244.57,548.03,224.01,518.04,224.01z M393.49,326.25v-82.26c0-21.1,17.17-38.27,38.27-38.27
							c10.18,0,19.8,3.98,27.06,11.17c7.23,7.3,11.22,16.92,11.22,27.1v82.26h12V274c0-11.14,3.1-20.55,8.97-27.22
							c6.19-7.04,15.54-10.77,27.03-10.77c23.29,0,38.94,15.27,38.94,37.99v243.11c0,18.82-2.79,38.39-8.28,58.19
							c-13.66,49.65-20.97,83.08-23.04,127.98c-0.8,16.36-0.19,33.34,1.79,50.46l0.09,0.57c1.3,12.07-5.11,23.5-16.79,29.85
							c-22.32,12.31-63.24,26.99-131.46,26.99c-70.93,0-109.72-17.1-129.8-31.46c-8.67-6.13-13.64-15.15-13.64-24.74l-0.02-0.69
							c-1.67-21.32-3.31-31.81-6.74-43.19c-1.78-5.94-3.2-10.97-4.44-15.4c-6.74-24.01-8.77-31.25-37.37-70.49
							c-13.34-18.33-22.42-49.16-31.2-78.97c-7.31-24.86-14.22-48.33-23.33-63.32l-0.25-0.41L33.37,366.19
							c-4.97-6.01-10.8-15.51-10.37-26.68c0.41-10.55,6.33-20.62,17.61-29.94c7.31-6.05,15-9.08,23.01-9.08
							c9.72,0,19.91,4.45,30.5,13.32l118.77,113.43l3.5,3.34V61.26c0-10.18,3.98-19.81,11.17-27.06c7.3-7.24,16.93-11.22,27.1-11.22
							c20.69,0,37.45,16.18,38.2,36.84v266.43l0.08,6h12l-0.08-115.89c0-21.1,17.17-38.28,38.28-38.28
							c21.11,0,38.28,17.18,38.28,38.29l0.07,109.88H393.49z"/>
					</g>
				</g>
				<g>
					<g>
						<path class="st0" d="M518.05,219.03c-12.94,0-24.18,3.51-33.02,10.23c-2.51-9.08-7.34-17.44-14.22-24.38
							c-10.49-10.41-24.36-16.14-39.04-16.14c-13.45,0-25.79,4.83-35.38,12.84c-6.48-23.31-27.9-40.47-53.25-40.47
							c-12.49,0-24.03,4.17-33.3,11.19V59.34C308.82,29.43,284.58,6,254.66,6c-14.68,0-28.55,5.73-39.12,16.21
							c-10.4,10.5-16.13,24.36-16.13,39.05V390.9l-94.22-89.95c-25.45-21.43-52.93-23.05-75.4-4.47
							c-15.16,12.54-23.15,26.79-23.75,42.37c-0.5,13.08,4.42,26.27,14.36,38.28l98.27,115.3c7.77,13.19,14.26,35.24,21.13,58.58
							c9.19,31.2,18.68,63.46,33.76,84.16c26.8,36.78,28.33,42.22,34.74,65.09c1.27,4.51,2.7,9.62,4.53,15.7
							c3.03,10.06,4.51,19.69,6.04,38.99c0,15.17,7.59,29.24,20.76,38.57c22.09,15.79,64.24,34.61,139.66,34.61
							c71.84,0,115.6-15.83,139.61-29.07c17.61-9.59,27.62-27.96,25.42-47.28c-1.88-16.19-2.45-32.23-1.7-47.7
							c1.99-43.33,9.12-75.85,22.45-124.25c5.89-21.27,8.89-42.37,8.89-62.73V274C573.96,242.15,550.44,219.03,518.05,219.03z
							 M221.37,416.55V61.26c0-8.86,3.47-17.24,9.7-23.53c6.36-6.3,14.74-9.77,23.59-9.77c18.03,0,32.62,14.11,33.23,31.76v266.53
							c0,6.06,4.99,10.98,11.05,10.98c2.91,0,5.7-1.16,7.76-3.22c2.06-2.06,3.21-4.86,3.21-7.77l-0.07-109.88
							c0-18.36,14.94-33.3,33.3-33.3c18.37,0,33.3,14.94,33.3,33.31l0.07,109.89c0,3.03,1.23,5.77,3.21,7.76
							c1.99,1.98,4.73,3.21,7.76,3.21c6.07,0,10.98-4.92,10.98-10.98v-82.26c0-18.36,14.94-33.3,33.31-33.3
							c8.85,0,17.23,3.47,23.51,9.71c6.31,6.36,9.78,14.74,9.78,23.59v82.26c0,6.06,4.92,10.98,10.98,10.98s10.98-4.92,10.98-10.98
							V274c0-9.92,2.67-18.19,7.72-23.93c5.3-6.03,13.14-9.08,23.31-9.08c20.62,0,33.95,12.96,33.95,33.01v243.1
							c0,18.37-2.72,37.51-8.1,56.88c-13.75,50-21.12,83.69-23.21,129.06c-0.81,16.64-0.2,33.89,1.89,51.67
							c1.13,10.08-4.3,19.69-14.23,25.1c-21.81,12.02-61.9,26.36-129.06,26.36c-73.27,0-110.95-19.11-126.93-30.55
							c-7.33-5.18-11.53-12.72-11.53-20.89c0-0.29-0.02-0.58-0.04-0.86c-1.71-21.73-3.39-32.48-6.94-44.23
							c-1.77-5.92-3.17-10.92-4.41-15.32c-7.29-25.97-10.08-33.57-38.13-72.08c-12.84-17.62-21.79-48.03-30.45-77.43
							c-7.41-25.18-14.41-48.96-23.86-64.51c-0.31-0.5-0.65-0.97-1.03-1.42L37.21,363.01c-4.42-5.33-9.6-13.71-9.23-23.31
							c0.35-9.07,5.67-17.91,15.8-26.3c3.04-2.52,9.7-8.02,19.73-8.02c7.27,0,16.31,2.89,27.03,11.9l112.27,107.21
							c2.71,2.58,6.52,3.58,10.08,2.75c0.62-0.14,1.22-0.34,1.82-0.59c0.59-0.26,1.16-0.56,1.68-0.91
							C219.46,423.74,221.37,420.3,221.37,416.55z"/>
						<path class="st0" d="M518.05,234.99c-11.97,0-21.32,3.74-27.81,11.12c-6.03,6.85-9.22,16.49-9.22,27.89v52.25
							c0,2.74-2.24,4.98-4.98,4.98s-4.98-2.24-4.98-4.98v-82.26c0-10.44-4.09-20.32-11.55-27.85c-7.44-7.38-17.3-11.45-27.74-11.45
							c-21.68,0-39.31,17.63-39.31,39.3v82.26c0,2.74-2.23,4.98-4.98,4.98c-2.74,0-4.97-2.23-4.97-4.98l-0.07-109.88
							c0-21.68-17.63-39.31-39.3-39.31s-39.3,17.63-39.3,39.31l0.07,109.87c0,1.34-0.51,2.59-1.45,3.53
							c-0.94,0.94-2.19,1.46-3.52,1.46c-2.79,0-5.05-2.24-5.05-4.98V59.72l-0.01-0.21c-0.72-21.06-17.95-37.55-39.22-37.55
							c-10.45,0-20.33,4.09-27.86,11.55c-7.37,7.45-11.43,17.3-11.43,27.75v355.29c0,2-1.19,3.79-3.02,4.58
							c-1.84,0.78-3.96,0.4-5.4-0.98L94.68,312.94l-0.28-0.25c-10.5-8.83-20.9-13.31-30.89-13.31c-12.19,0-20.16,6.59-23.55,9.4
							c-11.51,9.52-17.56,19.84-17.98,30.69c-0.44,11.49,5.52,21.22,10.67,27.44l98.74,115.85c0.18,0.21,0.35,0.44,0.48,0.65
							c9.02,14.85,15.9,38.2,23.19,62.93l0.05,0.18c8.8,29.89,17.9,60.8,31.35,79.26c27.53,37.79,30.01,44.53,37.21,70.17l0.13,0.48
							c1.21,4.3,2.58,9.18,4.31,14.94c3.4,11.29,5.03,21.73,6.7,42.95c0.01,0.13,0.02,0.27,0.02,0.41
							c0,10.07,5.13,19.47,14.04,25.77c16.54,11.83,55.46,31.67,130.42,31.67c68.44,0,109.53-14.74,131.93-27.09
							c12.1-6.59,18.74-18.48,17.32-31.07c-2.03-17.24-2.65-34.29-1.85-50.69c2.06-44.81,9.36-78.18,23-127.73
							c5.51-19.9,8.31-39.58,8.31-58.49V274C558,250.66,541.94,234.99,518.05,234.99z M227.37,416.55V61.26
							c0-7.27,2.82-14.12,7.92-19.27c5.23-5.18,12.11-8.03,19.37-8.03c14.74,0,26.68,11.35,27.23,25.87v266.42
							c0,9.36,7.65,16.98,17.05,16.98c4.53,0,8.79-1.77,12-4.97c3.21-3.21,4.97-7.47,4.97-12.02l-0.07-109.88
							c0-15.05,12.25-27.3,27.3-27.3s27.3,12.25,27.3,27.31l0.07,109.89c0,9.35,7.61,16.97,16.97,16.97
							c9.37,0,16.98-7.62,16.98-16.98v-82.26c0-15.05,12.25-27.3,27.31-27.3c7.26,0,14.11,2.83,19.25,7.93
							c5.19,5.23,8.04,12.11,8.04,19.37v82.26c0,9.36,7.62,16.98,16.98,16.98c9.36,0,16.98-7.62,16.98-16.98V274
							c0-8.43,2.15-15.33,6.23-19.96c4.11-4.68,10.44-7.05,18.8-7.05c17.24,0,27.95,10.35,27.95,27.01v243.1
							c0,17.83-2.65,36.43-7.88,55.29c-13.88,50.43-21.31,84.44-23.42,130.36c-0.83,17.04-0.18,34.76,1.92,52.64
							c0.85,7.6-3.41,14.94-11.17,19.16c-21.19,11.69-60.28,25.62-126.16,25.62c-71.61,0-108.07-18.43-123.46-29.44
							c-5.81-4.11-9-9.79-9-16c0-0.44-0.02-0.88-0.06-1.33c-1.74-22.22-3.49-33.27-7.17-45.48c-1.69-5.66-3.05-10.48-4.25-14.74
							l-0.13-0.48c-7.37-26.26-10.48-34.75-39.06-73.99c-12.23-16.78-21.03-46.67-29.54-75.6l-0.05-0.16
							c-7.51-25.5-14.61-49.59-24.47-65.81c-0.47-0.76-0.99-1.48-1.56-2.15l-98.71-115.8c-3.75-4.53-8.15-11.56-7.86-19.26
							c0.29-7.29,4.87-14.66,13.63-21.91c2.81-2.32,8.04-6.64,15.91-6.64c7.05,0,14.8,3.49,23.03,10.37l112.13,107.09
							c4.92,4.69,12.14,5.99,18.39,3.32C223.32,429.49,227.37,423.36,227.37,416.55z M518.05,234.99
							c-11.97,0-21.32,3.74-27.81,11.12c-6.03,6.85-9.22,16.49-9.22,27.89v52.25c0,2.74-2.24,4.98-4.98,4.98s-4.98-2.24-4.98-4.98
							v-82.26c0-10.44-4.09-20.32-11.55-27.85c-7.44-7.38-17.3-11.45-27.74-11.45c-21.68,0-39.31,17.63-39.31,39.3v82.26
							c0,2.74-2.23,4.98-4.98,4.98c-2.74,0-4.97-2.23-4.97-4.98l-0.07-109.88c0-21.68-17.63-39.31-39.3-39.31
							s-39.3,17.63-39.3,39.31l0.07,109.87c0,1.34-0.51,2.59-1.45,3.53c-0.94,0.94-2.19,1.46-3.52,1.46c-2.79,0-5.05-2.24-5.05-4.98
							V59.72l-0.01-0.21c-0.72-21.06-17.95-37.55-39.22-37.55c-10.45,0-20.33,4.09-27.86,11.55c-7.37,7.45-11.43,17.3-11.43,27.75
							v355.29c0,2-1.19,3.79-3.02,4.58c-1.84,0.78-3.96,0.4-5.4-0.98L94.68,312.94l-0.28-0.25c-10.5-8.83-20.9-13.31-30.89-13.31
							c-12.19,0-20.16,6.59-23.55,9.4c-11.51,9.52-17.56,19.84-17.98,30.69c-0.44,11.49,5.52,21.22,10.67,27.44l98.74,115.85
							c0.18,0.21,0.35,0.44,0.48,0.65c9.02,14.85,15.9,38.2,23.19,62.93l0.05,0.18c8.8,29.89,17.9,60.8,31.35,79.26
							c27.53,37.79,30.01,44.53,37.21,70.17l0.13,0.48c1.21,4.3,2.58,9.18,4.31,14.94c3.4,11.29,5.03,21.73,6.7,42.95
							c0.01,0.13,0.02,0.27,0.02,0.41c0,10.07,5.13,19.47,14.04,25.77c16.54,11.83,55.46,31.67,130.42,31.67
							c68.44,0,109.53-14.74,131.93-27.09c12.1-6.59,18.74-18.48,17.32-31.07c-2.03-17.24-2.65-34.29-1.85-50.69
							c2.06-44.81,9.36-78.18,23-127.73c5.51-19.9,8.31-39.58,8.31-58.49V274C558,250.66,541.94,234.99,518.05,234.99z
							 M227.37,416.55V61.26c0-7.27,2.82-14.12,7.92-19.27c5.23-5.18,12.11-8.03,19.37-8.03c14.74,0,26.68,11.35,27.23,25.87v266.42
							c0,9.36,7.65,16.98,17.05,16.98c4.53,0,8.79-1.77,12-4.97c3.21-3.21,4.97-7.47,4.97-12.02l-0.07-109.88
							c0-15.05,12.25-27.3,27.3-27.3s27.3,12.25,27.3,27.31l0.07,109.89c0,9.35,7.61,16.97,16.97,16.97
							c9.37,0,16.98-7.62,16.98-16.98v-82.26c0-15.05,12.25-27.3,27.31-27.3c7.26,0,14.11,2.83,19.25,7.93
							c5.19,5.23,8.04,12.11,8.04,19.37v82.26c0,9.36,7.62,16.98,16.98,16.98c9.36,0,16.98-7.62,16.98-16.98V274
							c0-8.43,2.15-15.33,6.23-19.96c4.11-4.68,10.44-7.05,18.8-7.05c17.24,0,27.95,10.35,27.95,27.01v243.1
							c0,17.83-2.65,36.43-7.88,55.29c-13.88,50.43-21.31,84.44-23.42,130.36c-0.83,17.04-0.18,34.76,1.92,52.64
							c0.85,7.6-3.41,14.94-11.17,19.16c-21.19,11.69-60.28,25.62-126.16,25.62c-71.61,0-108.07-18.43-123.46-29.44
							c-5.81-4.11-9-9.79-9-16c0-0.44-0.02-0.88-0.06-1.33c-1.74-22.22-3.49-33.27-7.17-45.48c-1.69-5.66-3.05-10.48-4.25-14.74
							l-0.13-0.48c-7.37-26.26-10.48-34.75-39.06-73.99c-12.23-16.78-21.03-46.67-29.54-75.6l-0.05-0.16
							c-7.51-25.5-14.61-49.59-24.47-65.81c-0.47-0.76-0.99-1.48-1.56-2.15l-98.71-115.8c-3.75-4.53-8.15-11.56-7.86-19.26
							c0.29-7.29,4.87-14.66,13.63-21.91c2.81-2.32,8.04-6.64,15.91-6.64c7.05,0,14.8,3.49,23.03,10.37l112.13,107.09
							c4.92,4.69,12.14,5.99,18.39,3.32C223.32,429.49,227.37,423.36,227.37,416.55z M518.05,213.03c-11.07,0-21.24,2.43-29.87,7.09
							c-3.06-7.19-7.52-13.83-13.14-19.5c-11.63-11.53-27-17.88-43.27-17.88c-11.49,0-22.74,3.26-32.41,9.3
							c-9.59-22.11-31.65-36.93-56.22-36.93c-9.61,0-18.88,2.19-27.3,6.41V59.34l-0.01-0.2C314.71,25.98,287.84,0,254.66,0
							c-16.27,0-31.67,6.37-43.38,17.98c-11.52,11.63-17.87,27-17.87,43.28v315.61l-84.08-80.26l-0.28-0.25
							c-13.67-11.52-27.91-17.79-42.32-18.64c-14.45-0.85-28.55,4.04-40.77,14.14c-16.53,13.67-25.25,29.4-25.92,46.77
							c-0.56,14.57,4.88,29.21,15.79,42.39l97.93,114.89c7.29,12.63,13.6,34.09,20.29,56.79c9.32,31.69,18.97,64.46,34.66,86
							c26.16,35.91,27.48,40.6,33.82,63.18c1.2,4.28,2.69,9.61,4.55,15.82c2.88,9.51,4.29,18.64,5.79,37.49
							c0.08,17.06,8.56,32.8,23.27,43.21c22.8,16.3,66.14,35.73,143.15,35.73c73.11,0,117.86-16.22,142.48-29.8
							c19.78-10.77,30.97-31.66,28.51-53.24c-1.84-15.86-2.4-31.58-1.67-46.74c1.97-42.76,9.04-74.95,22.24-122.92
							c6.04-21.8,9.11-43.44,9.11-64.33V274C579.96,238.67,553.92,213.03,518.05,213.03z M536.62,703.79
							c-0.76,15.79-0.18,32.17,1.74,48.67c1.9,16.69-6.86,32.91-22.35,41.34c-23.43,12.93-66.16,28.33-136.72,28.33
							c-73.83,0-114.8-18.22-136.19-33.51c-11.58-8.2-18.23-20.47-18.23-33.67l-0.02-0.48c-1.59-19.98-3.11-29.76-6.28-40.23
							c-1.82-6.1-3.24-11.15-4.49-15.62c-6.49-23.12-8.24-29.33-35.67-66.98c-14.47-19.86-23.81-51.62-32.85-82.33
							c-6.98-23.7-13.57-46.08-21.72-59.93l-0.27-0.45L25.02,373.31c-8.94-10.81-13.43-22.64-12.99-34.22
							c0.53-13.81,7.79-26.58,21.58-37.98c9.32-7.71,19.43-11.55,29.9-11.55c12.3,0,25.09,5.3,37.67,15.86l104.23,99.5V61.26
							c0-13.1,5.11-25.47,14.36-34.79c9.41-9.33,21.8-14.47,34.89-14.47c26.64,0,48.22,20.83,49.18,47.45v124.92l1.02-0.77
							l0.54-0.41l8.06-6.11c8.61-6.52,18.88-9.97,29.68-9.97c22.04,0,41.56,14.83,47.47,36.08l2.49,8.95l7.14-5.96
							c8.83-7.38,20.03-11.44,31.53-11.44c13.09,0,25.45,5.11,34.78,14.36c6.07,6.12,10.46,13.64,12.7,21.76l2.35,8.54l7.06-5.36
							c7.86-5.98,17.75-9.01,29.39-9.01c28.92,0,49.91,20.59,49.91,48.97v243.1c0,19.81-2.92,40.37-8.68,61.14
							C545.84,627.08,538.64,659.9,536.62,703.79z M518.05,234.99c-11.97,0-21.32,3.74-27.81,11.12
							c-6.03,6.85-9.22,16.49-9.22,27.89v52.25c0,2.74-2.24,4.98-4.98,4.98s-4.98-2.24-4.98-4.98v-82.26
							c0-10.44-4.09-20.32-11.55-27.85c-7.44-7.38-17.3-11.45-27.74-11.45c-21.68,0-39.31,17.63-39.31,39.3v82.26
							c0,2.74-2.23,4.98-4.98,4.98c-2.74,0-4.97-2.23-4.97-4.98l-0.07-109.88c0-21.68-17.63-39.31-39.3-39.31
							s-39.3,17.63-39.3,39.31l0.07,109.87c0,1.34-0.51,2.59-1.45,3.53c-0.94,0.94-2.19,1.46-3.52,1.46c-2.79,0-5.05-2.24-5.05-4.98
							V59.72l-0.01-0.21c-0.72-21.06-17.95-37.55-39.22-37.55c-10.45,0-20.33,4.09-27.86,11.55c-7.37,7.45-11.43,17.3-11.43,27.75
							v355.29c0,2-1.19,3.79-3.02,4.58c-1.84,0.78-3.96,0.4-5.4-0.98L94.68,312.94l-0.28-0.25c-10.5-8.83-20.9-13.31-30.89-13.31
							c-12.19,0-20.16,6.59-23.55,9.4c-11.51,9.52-17.56,19.84-17.98,30.69c-0.44,11.49,5.52,21.22,10.67,27.44l98.74,115.85
							c0.18,0.21,0.35,0.44,0.48,0.65c9.02,14.85,15.9,38.2,23.19,62.93l0.05,0.18c8.8,29.89,17.9,60.8,31.35,79.26
							c27.53,37.79,30.01,44.53,37.21,70.17l0.13,0.48c1.21,4.3,2.58,9.18,4.31,14.94c3.4,11.29,5.03,21.73,6.7,42.95
							c0.01,0.13,0.02,0.27,0.02,0.41c0,10.07,5.13,19.47,14.04,25.77c16.54,11.83,55.46,31.67,130.42,31.67
							c68.44,0,109.53-14.74,131.93-27.09c12.1-6.59,18.74-18.48,17.32-31.07c-2.03-17.24-2.65-34.29-1.85-50.69
							c2.06-44.81,9.36-78.18,23-127.73c5.51-19.9,8.31-39.58,8.31-58.49V274C558,250.66,541.94,234.99,518.05,234.99z
							 M227.37,416.55V61.26c0-7.27,2.82-14.12,7.92-19.27c5.23-5.18,12.11-8.03,19.37-8.03c14.74,0,26.68,11.35,27.23,25.87v266.42
							c0,9.36,7.65,16.98,17.05,16.98c4.53,0,8.79-1.77,12-4.97c3.21-3.21,4.97-7.47,4.97-12.02l-0.07-109.88
							c0-15.05,12.25-27.3,27.3-27.3s27.3,12.25,27.3,27.31l0.07,109.89c0,9.35,7.61,16.97,16.97,16.97
							c9.37,0,16.98-7.62,16.98-16.98v-82.26c0-15.05,12.25-27.3,27.31-27.3c7.26,0,14.11,2.83,19.25,7.93
							c5.19,5.23,8.04,12.11,8.04,19.37v82.26c0,9.36,7.62,16.98,16.98,16.98c9.36,0,16.98-7.62,16.98-16.98V274
							c0-8.43,2.15-15.33,6.23-19.96c4.11-4.68,10.44-7.05,18.8-7.05c17.24,0,27.95,10.35,27.95,27.01v243.1
							c0,17.83-2.65,36.43-7.88,55.29c-13.88,50.43-21.31,84.44-23.42,130.36c-0.83,17.04-0.18,34.76,1.92,52.64
							c0.85,7.6-3.41,14.94-11.17,19.16c-21.19,11.69-60.28,25.62-126.16,25.62c-71.61,0-108.07-18.43-123.46-29.44
							c-5.81-4.11-9-9.79-9-16c0-0.44-0.02-0.88-0.06-1.33c-1.74-22.22-3.49-33.27-7.17-45.48c-1.69-5.66-3.05-10.48-4.25-14.74
							l-0.13-0.48c-7.37-26.26-10.48-34.75-39.06-73.99c-12.23-16.78-21.03-46.67-29.54-75.6l-0.05-0.16
							c-7.51-25.5-14.61-49.59-24.47-65.81c-0.47-0.76-0.99-1.48-1.56-2.15l-98.71-115.8c-3.75-4.53-8.15-11.56-7.86-19.26
							c0.29-7.29,4.87-14.66,13.63-21.91c2.81-2.32,8.04-6.64,15.91-6.64c7.05,0,14.8,3.49,23.03,10.37l112.13,107.09
							c4.92,4.69,12.14,5.99,18.39,3.32C223.32,429.49,227.37,423.36,227.37,416.55z"/>
					</g>
				</g>
			</g>
		</g>
	</g>
</g>
</svg>
